{
	"asset":{
		"generator":"Khronos glTF Blender I/O v5.0.21",
		"version":"2.0"
	},
	"scene":0,
	"scenes":[
		{
			"name":"Scene",
			"nodes":[
				0
			]
		}
	],
	"nodes":[
		{
			"mesh":0,
			"name":"Shield"
		}
	],
	"materials":[
		{
			"doubleSided":true,
			"name":"Mat_Cha",
			"pbrMetallicRoughness":{
				"metallicFactor":0,
				"roughnessFactor":0.5527864098548889
			}
		}
	],
	"meshes":[
		{
			"name":"Mesh.017",
			"primitives":[
				{
					"attributes":{
						"POSITION":0,
						"NORMAL":1,
						"TEXCOORD_0":2
					},
					"indices":3,
					"material":0
				}
			]
		}
	],
	"accessors":[
		{
			"bufferView":0,
			"componentType":5126,
			"count":215,
			"max":[
				0.2643676996231079,
				0.09416219592094421,
				0.3745236098766327
			],
			"min":[
				-0.3112459182739258,
				-0.032066959887742996,
				-0.2732832133769989
			],
			"type":"VEC3"
		},
		{
			"bufferView":1,
			"componentType":5126,
			"count":215,
			"type":"VEC3"
		},
		{
			"bufferView":2,
			"componentType":5126,
			"count":215,
			"type":"VEC2"
		},
		{
			"bufferView":3,
			"componentType":5123,
			"count":402,
			"type":"SCALAR"
		}
	],
	"bufferViews":[
		{
			"buffer":0,
			"byteLength":2580,
			"byteOffset":0,
			"target":34962
		},
		{
			"buffer":0,
			"byteLength":2580,
			"byteOffset":2580,
			"target":34962
		},
		{
			"buffer":0,
			"byteLength":1720,
			"byteOffset":5160,
			"target":34962
		},
		{
			"buffer":0,
			"byteLength":804,
			"byteOffset":6880,
			"target":34963
		}
	],
	"buffers":[
		{
			"byteLength":7684,
			"uri":"Msh_Shield.bin"
		}
	]
}
