{
	"asset":{
		"generator":"Khronos glTF Blender I/O v5.0.21",
		"version":"2.0"
	},
	"scene":0,
	"scenes":[
		{
			"name":"Scene",
			"nodes":[
				0
			]
		}
	],
	"nodes":[
		{
			"mesh":0,
			"name":"Sword"
		}
	],
	"materials":[
		{
			"doubleSided":true,
			"name":"Mat_Cha",
			"pbrMetallicRoughness":{
				"metallicFactor":0,
				"roughnessFactor":0.5527864098548889
			}
		}
	],
	"meshes":[
		{
			"name":"Mesh",
			"primitives":[
				{
					"attributes":{
						"POSITION":0,
						"NORMAL":1,
						"TEXCOORD_0":2
					},
					"indices":3,
					"material":0
				}
			]
		}
	],
	"accessors":[
		{
			"bufferView":0,
			"componentType":5126,
			"count":377,
			"max":[
				0.1711471676826477,
				0.032573822885751724,
				0.21504279971122742
			],
			"min":[
				-0.22129245102405548,
				-0.056876134127378464,
				-1.200564980506897
			],
			"type":"VEC3"
		},
		{
			"bufferView":1,
			"componentType":5126,
			"count":377,
			"type":"VEC3"
		},
		{
			"bufferView":2,
			"componentType":5126,
			"count":377,
			"type":"VEC2"
		},
		{
			"bufferView":3,
			"componentType":5123,
			"count":828,
			"type":"SCALAR"
		}
	],
	"bufferViews":[
		{
			"buffer":0,
			"byteLength":4524,
			"byteOffset":0,
			"target":34962
		},
		{
			"buffer":0,
			"byteLength":4524,
			"byteOffset":4524,
			"target":34962
		},
		{
			"buffer":0,
			"byteLength":3016,
			"byteOffset":9048,
			"target":34962
		},
		{
			"buffer":0,
			"byteLength":1656,
			"byteOffset":12064,
			"target":34963
		}
	],
	"buffers":[
		{
			"byteLength":13720,
			"uri":"Msh_Sword.bin"
		}
	]
}
