{
	"asset":{
		"generator":"Khronos glTF Blender I/O v5.0.21",
		"version":"2.0"
	},
	"scene":0,
	"scenes":[
		{
			"name":"Scene",
			"nodes":[
				0
			]
		}
	],
	"nodes":[
		{
			"mesh":0,
			"name":"Ruby",
			"translation":[
				0,
				0.0013652890920639038,
				0.022114872932434082
			]
		}
	],
	"materials":[
		{
			"doubleSided":true,
			"name":"Mat_Assets",
			"pbrMetallicRoughness":{
				"baseColorTexture":{
					"index":0
				},
				"metallicFactor":0
			}
		}
	],
	"meshes":[
		{
			"name":"Cube.014",
			"primitives":[
				{
					"attributes":{
						"POSITION":0,
						"NORMAL":1,
						"TEXCOORD_0":2
					},
					"indices":3,
					"material":0
				}
			]
		}
	],
	"textures":[
		{
			"sampler":0,
			"source":0
		}
	],
	"images":[
		{
			"mimeType":"image/png",
			"name":"Map_Cha.png",
			"uri":"../Character/Map_Cha.png"
		}
	],
	"accessors":[
		{
			"bufferView":0,
			"componentType":5126,
			"count":1267,
			"max":[
				0.2507462799549103,
				0.2864312529563904,
				0.2385641634464264
			],
			"min":[
				-0.2507462799549103,
				0,
				-0.2385641634464264
			],
			"type":"VEC3"
		},
		{
			"bufferView":1,
			"componentType":5126,
			"count":1267,
			"type":"VEC3"
		},
		{
			"bufferView":2,
			"componentType":5126,
			"count":1267,
			"type":"VEC2"
		},
		{
			"bufferView":3,
			"componentType":5123,
			"count":6012,
			"type":"SCALAR"
		}
	],
	"bufferViews":[
		{
			"buffer":0,
			"byteLength":15204,
			"byteOffset":0,
			"target":34962
		},
		{
			"buffer":0,
			"byteLength":15204,
			"byteOffset":15204,
			"target":34962
		},
		{
			"buffer":0,
			"byteLength":10136,
			"byteOffset":30408,
			"target":34962
		},
		{
			"buffer":0,
			"byteLength":12024,
			"byteOffset":40544,
			"target":34963
		}
	],
	"samplers":[
		{
			"magFilter":9729,
			"minFilter":9987
		}
	],
	"buffers":[
		{
			"byteLength":52568,
			"uri":"Msh_Crown.bin"
		}
	]
}
